<?xml version="1.0" encoding="UTF-8"?>
<svg width="162px" height="189px" viewBox="0 0 162 189" version="1.1" xmlns="http://www.w3.org/2000/svg" xmlns:xlink="http://www.w3.org/1999/xlink">
    <!-- Generator: Sketch 42 (36781) - http://www.bohemiancoding.com/sketch -->
    <title>alien</title>
    <desc>Created with Sketch.</desc>
    <defs></defs>
    <g id="Logo" stroke="none" stroke-width="1" fill="none" fill-rule="evenodd">
        <g id="1024x1024" transform="translate(-432.000000, -339.000000)">
            <g id="alien" transform="translate(434.000000, 341.000000)">
                <path d="M78.2348873,185.335656 C96.9022829,182.852386 152.03251,120.476609 157.947075,77.2359078 C163.861639,33.9952067 122.141525,0 78.2348873,0 C34.3282497,0 -6.19448586,33.6477094 0.788265275,77.2359078 C7.77101641,120.824106 59.5674917,187.818925 78.2348873,185.335656 Z" id="Oval-3" stroke="#0E4F62" stroke-width="3" opacity="0.75"></path>
                <path d="M8.44592315,67.8442623 C8.44592315,67.8442623 6.87915999,91.559621 24.0626249,110.900522 C41.2460898,130.241424 69.6837124,130.254789 69.6837124,130.254789 C69.6837124,130.254789 71.6967819,110.516939 59.3999025,89.1806006 C47.1030231,67.8442623 8.44592315,67.8442623 8.44592315,67.8442623 Z" id="Path-2" fill="#0E4F62"></path>
                <path d="M88.7103462,68.6065574 C88.7103462,68.6065574 87.1435831,92.3219161 104.327048,111.662818 C121.510513,131.003719 149.948135,131.017084 149.948135,131.017084 C149.948135,131.017084 151.961205,111.279234 139.664326,89.9428957 C127.367446,68.6065574 88.7103462,68.6065574 88.7103462,68.6065574 Z" id="Path-2" fill="#0E4F62" transform="translate(119.371842, 99.811821) scale(-1, 1) translate(-119.371842, -99.811821) "></path>
            </g>
        </g>
    </g>
</svg>