<?xml version="1.0" encoding="UTF-8"?>
<svg width="975px" height="60px" viewBox="0 0 975 60" version="1.1" xmlns="http://www.w3.org/2000/svg" xmlns:xlink="http://www.w3.org/1999/xlink">
    <!-- Generator: Sketch 42 (36781) - http://www.bohemiancoding.com/sketch -->
    <title>NETHERIANS GAMES</title>
    <desc>Created with Sketch.</desc>
    <defs></defs>
    <g id="Logo" stroke="none" stroke-width="1" fill="none" fill-rule="evenodd">
        <g id="1024x1024" transform="translate(-24.000000, -868.000000)" fill="#0E4F62">
            <path d="M30.3405797,927.51087 L30.3405797,876.242754 L66.7536232,927.51087 L76.7173913,927.51087 L76.7173913,870.98913 L70.3768116,870.98913 L70.3768116,922.166667 L34.5978261,870.98913 L24,870.98913 L24,927.51087 L30.3405797,927.51087 Z M131.699275,897.981884 L131.699275,903.688406 L104.615942,903.688406 L104.615942,897.981884 L131.699275,897.981884 Z M89.3985507,927.51087 L89.3985507,870.98913 L132.423913,870.98913 L132.423913,876.695652 L95.7391304,876.695652 L95.7391304,921.804348 L132.423913,921.804348 L132.423913,927.51087 L89.3985507,927.51087 Z M144.833333,870.98913 L144.833333,876.695652 L166.300725,876.695652 L166.300725,927.51087 L172.641304,927.51087 L172.641304,876.695652 L194.199275,876.695652 L194.199275,870.98913 L144.833333,870.98913 Z M212.949275,927.51087 L206.608696,927.51087 L206.608696,870.98913 L212.949275,870.98913 L212.949275,897.981884 L244.199275,897.981884 L244.199275,903.688406 L212.949275,903.688406 L212.949275,927.51087 Z M258.873188,927.51087 L252.532609,927.51087 L252.532609,870.98913 L258.873188,870.98913 L258.873188,927.51087 Z M313.855072,897.981884 L313.855072,903.688406 L286.771739,903.688406 L286.771739,897.981884 L313.855072,897.981884 Z M271.554348,927.51087 L271.554348,870.98913 L314.57971,870.98913 L314.57971,876.695652 L277.894928,876.695652 L277.894928,921.804348 L314.57971,921.804348 L314.57971,927.51087 L271.554348,927.51087 Z M368.565217,927.51087 L375.358696,927.51087 L363.311594,903.688406 C365.183584,903.688406 366.949871,903.250608 368.610507,902.375 C370.271144,901.499392 371.720404,900.321867 372.958333,898.842391 C374.196262,897.362915 375.177533,895.672111 375.902174,893.769928 C376.626815,891.867744 376.98913,889.859914 376.98913,887.746377 C376.98913,885.391293 376.611719,883.187208 375.856884,881.134058 C375.102049,879.080908 374.090586,877.314621 372.822464,875.835145 C371.554341,874.355669 370.074888,873.178144 368.384058,872.302536 C366.693228,871.426928 364.911845,870.98913 363.039855,870.98913 L327.26087,870.98913 L327.26087,927.51087 L333.601449,927.51087 L333.601449,876.695652 L361.862319,876.695652 C363.190828,876.695652 364.383449,877.042871 365.440217,877.737319 C366.496986,878.431767 367.387678,879.307362 368.112319,880.36413 C368.83696,881.420899 369.395529,882.598423 369.788043,883.896739 C370.180558,885.195055 370.376812,886.448062 370.376812,887.655797 C370.376812,888.742759 370.225847,889.890091 369.923913,891.097826 C369.621979,892.305562 369.123796,893.4227 368.429348,894.449275 C367.7349,895.475851 366.874401,896.321253 365.847826,896.985507 C364.821251,897.649762 363.583341,897.981884 362.134058,897.981884 L353.438406,897.981884 L368.565217,927.51087 Z M388.673913,870.98913 L388.673913,876.695652 L409.688406,876.695652 L409.688406,921.804348 L388.673913,921.804348 L388.673913,927.51087 L437.134058,927.51087 L437.134058,921.804348 L416.028986,921.804348 L416.028986,876.695652 L437.134058,876.695652 L437.134058,870.98913 L388.673913,870.98913 Z M506.518116,927.51087 L499.452899,927.51087 L476.626812,881.586957 L456.971014,921.804348 L483.601449,921.804348 L487.496377,927.51087 L447.007246,927.51087 L476.626812,868 L506.518116,927.51087 Z M523.003623,927.51087 L523.003623,876.242754 L559.416667,927.51087 L569.380435,927.51087 L569.380435,870.98913 L563.039855,870.98913 L563.039855,922.166667 L527.26087,870.98913 L516.663043,870.98913 L516.663043,927.51087 L523.003623,927.51087 Z M630.15942,876.695652 L597.641304,876.695652 C594.380418,876.695652 591.934791,877.631633 590.304348,879.503623 C588.673905,881.375613 587.858696,883.760855 587.858696,886.65942 C587.858696,889.195665 588.432361,891.30917 589.57971,893 C590.727059,894.69083 592.568828,895.777775 595.105072,896.26087 L595.105072,902.148551 C593.233082,902.148551 591.466796,901.72585 589.806159,900.880435 C588.145523,900.03502 586.681166,898.917881 585.413043,897.528986 C584.144921,896.14009 583.148554,894.509671 582.423913,892.637681 C581.699272,890.765691 581.336957,888.772957 581.336957,886.65942 C581.336957,884.304336 581.699272,882.160638 582.423913,880.228261 C583.148554,878.295884 584.144921,876.650369 585.413043,875.291667 C586.681166,873.932964 588.16062,872.876212 589.851449,872.121377 C591.542279,871.366542 593.353855,870.98913 595.286232,870.98913 L630.15942,870.98913 L630.15942,876.695652 Z M582.242754,921.804348 L614.76087,921.804348 C618.021755,921.804348 620.467383,920.868367 622.097826,918.996377 C623.728269,917.124387 624.543478,914.739145 624.543478,911.84058 C624.543478,909.304335 623.969812,907.205926 622.822464,905.54529 C621.675115,903.884654 619.833346,902.812804 617.297101,902.32971 L617.297101,896.351449 C619.169091,896.351449 620.935378,896.77415 622.596014,897.619565 C624.256651,898.46498 625.721008,899.582119 626.98913,900.971014 C628.257253,902.35991 629.25362,904.005425 629.978261,905.907609 C630.702902,907.809792 631.065217,909.787429 631.065217,911.84058 C631.065217,914.195664 630.687806,916.339362 629.932971,918.271739 C629.178136,920.204116 628.166673,921.849631 626.898551,923.208333 C625.630428,924.567036 624.150975,925.623788 622.460145,926.378623 C620.769315,927.133458 618.987932,927.51087 617.115942,927.51087 L582.242754,927.51087 L582.242754,921.804348 Z M673.90942,899.25 C673.90942,895.32486 674.664244,891.626225 676.173913,888.153986 C677.683582,884.681746 679.721606,881.662452 682.288043,879.096014 C684.854481,876.529577 687.888871,874.491553 691.391304,872.981884 C694.893737,871.472215 698.637661,870.717391 702.623188,870.717391 C705.521754,870.717391 708.299504,871.124996 710.956522,871.940217 C713.61354,872.755439 716.059168,873.917867 718.293478,875.427536 C720.527789,876.937206 722.535619,878.718589 724.317029,880.771739 C726.098439,882.824889 727.562796,885.059167 728.710145,887.474638 L723.637681,890.735507 C722.73188,888.742744 721.569452,886.900975 720.150362,885.210145 C718.731273,883.519315 717.115951,882.039861 715.304348,880.771739 C713.492745,879.503617 711.515107,878.522346 709.371377,877.827899 C707.227646,877.133451 705.008466,876.786232 702.713768,876.786232 C699.634043,876.786232 696.705328,877.405187 693.927536,878.643116 C691.149745,879.881045 688.73431,881.52656 686.681159,883.57971 C684.628009,885.632861 682.997591,888.033199 681.789855,890.780797 C680.58212,893.528395 679.978261,896.381628 679.978261,899.34058 C679.978261,902.359918 680.58212,905.213151 681.789855,907.900362 C682.997591,910.587574 684.628009,912.957719 686.681159,915.01087 C688.73431,917.06402 691.134648,918.694438 693.882246,919.902174 C696.629845,921.109909 699.543463,921.713768 702.623188,921.713768 C704.736726,921.713768 706.789845,921.426935 708.782609,920.853261 C710.775372,920.279587 712.632238,919.479474 714.353261,918.452899 C716.074284,917.426323 717.644317,916.20351 719.063406,914.78442 C720.482495,913.365331 721.675116,911.780202 722.641304,910.028986 L726.98913,914.467391 C724.452886,918.452918 721.086374,921.668466 716.889493,924.11413 C712.692612,926.559795 707.937225,927.782609 702.623188,927.782609 C698.637661,927.782609 694.893737,927.027785 691.391304,925.518116 C687.888871,924.008447 684.854481,921.970423 682.288043,919.403986 C679.721606,916.837548 677.683582,913.818254 676.173913,910.346014 C674.664244,906.873775 673.90942,903.17514 673.90942,899.25 Z M726.717391,897.981884 L726.717391,903.688406 L699.634058,903.688406 L699.634058,897.981884 L726.717391,897.981884 Z M797.641304,927.51087 L790.576087,927.51087 L767.75,881.586957 L748.094203,921.804348 L774.724638,921.804348 L778.619565,927.51087 L738.130435,927.51087 L767.75,868 L797.641304,927.51087 Z M877.17029,927.51087 L856.246377,884.032609 L844.561594,908.76087 L832.695652,884.032609 L812.224638,927.51087 L805.25,927.51087 L832.695652,869.268116 L844.561594,893.905797 L856.065217,869.268116 L884.144928,927.51087 L877.17029,927.51087 Z M936.59058,897.981884 L936.59058,903.688406 L909.507246,903.688406 L909.507246,897.981884 L936.59058,897.981884 Z M894.289855,927.51087 L894.289855,870.98913 L937.315217,870.98913 L937.315217,876.695652 L900.630435,876.695652 L900.630435,921.804348 L937.315217,921.804348 L937.315217,927.51087 L894.289855,927.51087 Z M998.094203,876.695652 L965.576087,876.695652 C962.315201,876.695652 959.869573,877.631633 958.23913,879.503623 C956.608687,881.375613 955.793478,883.760855 955.793478,886.65942 C955.793478,889.195665 956.367144,891.30917 957.514493,893 C958.661841,894.69083 960.503611,895.777775 963.039855,896.26087 L963.039855,902.148551 C961.167865,902.148551 959.401578,901.72585 957.740942,900.880435 C956.080306,900.03502 954.615948,898.917881 953.347826,897.528986 C952.079704,896.14009 951.083337,894.509671 950.358696,892.637681 C949.634054,890.765691 949.271739,888.772957 949.271739,886.65942 C949.271739,884.304336 949.634054,882.160638 950.358696,880.228261 C951.083337,878.295884 952.079704,876.650369 953.347826,875.291667 C954.615948,873.932964 956.095402,872.876212 957.786232,872.121377 C959.477062,871.366542 961.288638,870.98913 963.221014,870.98913 L998.094203,870.98913 L998.094203,876.695652 Z M950.177536,921.804348 L982.695652,921.804348 C985.956538,921.804348 988.402166,920.868367 990.032609,918.996377 C991.663052,917.124387 992.478261,914.739145 992.478261,911.84058 C992.478261,909.304335 991.904595,907.205926 990.757246,905.54529 C989.609898,903.884654 987.768129,902.812804 985.231884,902.32971 L985.231884,896.351449 C987.103874,896.351449 988.870161,896.77415 990.530797,897.619565 C992.191433,898.46498 993.655791,899.582119 994.923913,900.971014 C996.192035,902.35991 997.188402,904.005425 997.913043,905.907609 C998.637685,907.809792 999,909.787429 999,911.84058 C999,914.195664 998.622588,916.339362 997.867754,918.271739 C997.112919,920.204116 996.101456,921.849631 994.833333,923.208333 C993.565211,924.567036 992.085757,925.623788 990.394928,926.378623 C988.704098,927.133458 986.922715,927.51087 985.050725,927.51087 L950.177536,927.51087 L950.177536,921.804348 Z" id="NETHERIANS-GAMES"></path>
        </g>
    </g>
</svg>