<?xml version="1.0" encoding="UTF-8"?>
<svg width="975px" height="871px" viewBox="0 0 975 871" version="1.1" xmlns="http://www.w3.org/2000/svg" xmlns:xlink="http://www.w3.org/1999/xlink">
    <!-- Generator: Sketch 42 (36781) - http://www.bohemiancoding.com/sketch -->
    <title>Group</title>
    <desc>Created with Sketch.</desc>
    <defs>
        <filter x="-50%" y="-50%" width="200%" height="200%" filterUnits="objectBoundingBox" id="filter-1">
            <feOffset dx="8" dy="0" in="SourceAlpha" result="shadowOffsetOuter1"></feOffset>
            <feGaussianBlur stdDeviation="7" in="shadowOffsetOuter1" result="shadowBlurOuter1"></feGaussianBlur>
            <feColorMatrix values="0 0 0 0 0   0 0 0 0 0   0 0 0 0 0  0 0 0 0.49830163 0" type="matrix" in="shadowBlurOuter1" result="shadowMatrixOuter1"></feColorMatrix>
            <feMerge>
                <feMergeNode in="shadowMatrixOuter1"></feMergeNode>
                <feMergeNode in="SourceGraphic"></feMergeNode>
            </feMerge>
        </filter>
    </defs>
    <g id="Logo" stroke="none" stroke-width="1" fill="none" fill-rule="evenodd">
        <g id="1024x1024" transform="translate(-24.000000, -57.000000)">
            <g id="Group" transform="translate(24.000000, 71.000000)">
                <g id="symbol" filter="url(#filter-1)" transform="translate(126.000000, 0.000000)">
                    <ellipse id="Oval" fill="#0E4F62" cx="362" cy="362.5" rx="362" ry="362.5"></ellipse>
                    <ellipse id="Oval-2" fill="#050C1B" cx="362" cy="362.5" rx="245.030641" ry="245.369081"></ellipse>
                    <ellipse id="Oval-2" fill="#0E4F62" cx="365.02507" cy="357.451253" rx="215.788301" ry="216.086351"></ellipse>
                    <ellipse id="Oval-2" fill="#050C1B" cx="383.175487" cy="357.451253" rx="213.771588" ry="214.066852"></ellipse>
                </g>
                <g id="alien" transform="translate(410.000000, 270.000000)">
                    <path d="M78.2348873,185.335656 C96.9022829,182.852386 152.03251,120.476609 157.947075,77.2359078 C163.861639,33.9952067 122.141525,0 78.2348873,0 C34.3282497,0 -6.19448586,33.6477094 0.788265275,77.2359078 C7.77101641,120.824106 59.5674917,187.818925 78.2348873,185.335656 Z" id="Oval-3" stroke="#0E4F62" stroke-width="3" opacity="0.75"></path>
                    <path d="M8.44592315,67.8442623 C8.44592315,67.8442623 6.87915999,91.559621 24.0626249,110.900522 C41.2460898,130.241424 69.6837124,130.254789 69.6837124,130.254789 C69.6837124,130.254789 71.6967819,110.516939 59.3999025,89.1806006 C47.1030231,67.8442623 8.44592315,67.8442623 8.44592315,67.8442623 Z" id="Path-2" fill="#0E4F62"></path>
                    <path d="M88.7103462,68.6065574 C88.7103462,68.6065574 87.1435831,92.3219161 104.327048,111.662818 C121.510513,131.003719 149.948135,131.017084 149.948135,131.017084 C149.948135,131.017084 151.961205,111.279234 139.664326,89.9428957 C127.367446,68.6065574 88.7103462,68.6065574 88.7103462,68.6065574 Z" id="Path-2" fill="#0E4F62" transform="translate(119.371842, 99.811821) scale(-1, 1) translate(-119.371842, -99.811821) "></path>
                </g>
                <path d="M6.34057971,856.51087 L6.34057971,805.242754 L42.7536232,856.51087 L52.7173913,856.51087 L52.7173913,799.98913 L46.3768116,799.98913 L46.3768116,851.166667 L10.5978261,799.98913 L0,799.98913 L0,856.51087 L6.34057971,856.51087 Z M107.699275,826.981884 L107.699275,832.688406 L80.615942,832.688406 L80.615942,826.981884 L107.699275,826.981884 Z M65.3985507,856.51087 L65.3985507,799.98913 L108.423913,799.98913 L108.423913,805.695652 L71.7391304,805.695652 L71.7391304,850.804348 L108.423913,850.804348 L108.423913,856.51087 L65.3985507,856.51087 Z M120.833333,799.98913 L120.833333,805.695652 L142.300725,805.695652 L142.300725,856.51087 L148.641304,856.51087 L148.641304,805.695652 L170.199275,805.695652 L170.199275,799.98913 L120.833333,799.98913 Z M188.949275,856.51087 L182.608696,856.51087 L182.608696,799.98913 L188.949275,799.98913 L188.949275,826.981884 L220.199275,826.981884 L220.199275,832.688406 L188.949275,832.688406 L188.949275,856.51087 Z M234.873188,856.51087 L228.532609,856.51087 L228.532609,799.98913 L234.873188,799.98913 L234.873188,856.51087 Z M289.855072,826.981884 L289.855072,832.688406 L262.771739,832.688406 L262.771739,826.981884 L289.855072,826.981884 Z M247.554348,856.51087 L247.554348,799.98913 L290.57971,799.98913 L290.57971,805.695652 L253.894928,805.695652 L253.894928,850.804348 L290.57971,850.804348 L290.57971,856.51087 L247.554348,856.51087 Z M344.565217,856.51087 L351.358696,856.51087 L339.311594,832.688406 C341.183584,832.688406 342.949871,832.250608 344.610507,831.375 C346.271144,830.499392 347.720404,829.321867 348.958333,827.842391 C350.196262,826.362915 351.177533,824.672111 351.902174,822.769928 C352.626815,820.867744 352.98913,818.859914 352.98913,816.746377 C352.98913,814.391293 352.611719,812.187208 351.856884,810.134058 C351.102049,808.080908 350.090586,806.314621 348.822464,804.835145 C347.554341,803.355669 346.074888,802.178144 344.384058,801.302536 C342.693228,800.426928 340.911845,799.98913 339.039855,799.98913 L303.26087,799.98913 L303.26087,856.51087 L309.601449,856.51087 L309.601449,805.695652 L337.862319,805.695652 C339.190828,805.695652 340.383449,806.042871 341.440217,806.737319 C342.496986,807.431767 343.387678,808.307362 344.112319,809.36413 C344.83696,810.420899 345.395529,811.598423 345.788043,812.896739 C346.180558,814.195055 346.376812,815.448062 346.376812,816.655797 C346.376812,817.742759 346.225847,818.890091 345.923913,820.097826 C345.621979,821.305562 345.123796,822.4227 344.429348,823.449275 C343.7349,824.475851 342.874401,825.321253 341.847826,825.985507 C340.821251,826.649762 339.583341,826.981884 338.134058,826.981884 L329.438406,826.981884 L344.565217,856.51087 Z M364.673913,799.98913 L364.673913,805.695652 L385.688406,805.695652 L385.688406,850.804348 L364.673913,850.804348 L364.673913,856.51087 L413.134058,856.51087 L413.134058,850.804348 L392.028986,850.804348 L392.028986,805.695652 L413.134058,805.695652 L413.134058,799.98913 L364.673913,799.98913 Z M482.518116,856.51087 L475.452899,856.51087 L452.626812,810.586957 L432.971014,850.804348 L459.601449,850.804348 L463.496377,856.51087 L423.007246,856.51087 L452.626812,797 L482.518116,856.51087 Z M499.003623,856.51087 L499.003623,805.242754 L535.416667,856.51087 L545.380435,856.51087 L545.380435,799.98913 L539.039855,799.98913 L539.039855,851.166667 L503.26087,799.98913 L492.663043,799.98913 L492.663043,856.51087 L499.003623,856.51087 Z M606.15942,805.695652 L573.641304,805.695652 C570.380418,805.695652 567.934791,806.631633 566.304348,808.503623 C564.673905,810.375613 563.858696,812.760855 563.858696,815.65942 C563.858696,818.195665 564.432361,820.30917 565.57971,822 C566.727059,823.69083 568.568828,824.777775 571.105072,825.26087 L571.105072,831.148551 C569.233082,831.148551 567.466796,830.72585 565.806159,829.880435 C564.145523,829.03502 562.681166,827.917881 561.413043,826.528986 C560.144921,825.14009 559.148554,823.509671 558.423913,821.637681 C557.699272,819.765691 557.336957,817.772957 557.336957,815.65942 C557.336957,813.304336 557.699272,811.160638 558.423913,809.228261 C559.148554,807.295884 560.144921,805.650369 561.413043,804.291667 C562.681166,802.932964 564.16062,801.876212 565.851449,801.121377 C567.542279,800.366542 569.353855,799.98913 571.286232,799.98913 L606.15942,799.98913 L606.15942,805.695652 Z M558.242754,850.804348 L590.76087,850.804348 C594.021755,850.804348 596.467383,849.868367 598.097826,847.996377 C599.728269,846.124387 600.543478,843.739145 600.543478,840.84058 C600.543478,838.304335 599.969812,836.205926 598.822464,834.54529 C597.675115,832.884654 595.833346,831.812804 593.297101,831.32971 L593.297101,825.351449 C595.169091,825.351449 596.935378,825.77415 598.596014,826.619565 C600.256651,827.46498 601.721008,828.582119 602.98913,829.971014 C604.257253,831.35991 605.25362,833.005425 605.978261,834.907609 C606.702902,836.809792 607.065217,838.787429 607.065217,840.84058 C607.065217,843.195664 606.687806,845.339362 605.932971,847.271739 C605.178136,849.204116 604.166673,850.849631 602.898551,852.208333 C601.630428,853.567036 600.150975,854.623788 598.460145,855.378623 C596.769315,856.133458 594.987932,856.51087 593.115942,856.51087 L558.242754,856.51087 L558.242754,850.804348 Z M649.90942,828.25 C649.90942,824.32486 650.664244,820.626225 652.173913,817.153986 C653.683582,813.681746 655.721606,810.662452 658.288043,808.096014 C660.854481,805.529577 663.888871,803.491553 667.391304,801.981884 C670.893737,800.472215 674.637661,799.717391 678.623188,799.717391 C681.521754,799.717391 684.299504,800.124996 686.956522,800.940217 C689.61354,801.755439 692.059168,802.917867 694.293478,804.427536 C696.527789,805.937206 698.535619,807.718589 700.317029,809.771739 C702.098439,811.824889 703.562796,814.059167 704.710145,816.474638 L699.637681,819.735507 C698.73188,817.742744 697.569452,815.900975 696.150362,814.210145 C694.731273,812.519315 693.115951,811.039861 691.304348,809.771739 C689.492745,808.503617 687.515107,807.522346 685.371377,806.827899 C683.227646,806.133451 681.008466,805.786232 678.713768,805.786232 C675.634043,805.786232 672.705328,806.405187 669.927536,807.643116 C667.149745,808.881045 664.73431,810.52656 662.681159,812.57971 C660.628009,814.632861 658.997591,817.033199 657.789855,819.780797 C656.58212,822.528395 655.978261,825.381628 655.978261,828.34058 C655.978261,831.359918 656.58212,834.213151 657.789855,836.900362 C658.997591,839.587574 660.628009,841.957719 662.681159,844.01087 C664.73431,846.06402 667.134648,847.694438 669.882246,848.902174 C672.629845,850.109909 675.543463,850.713768 678.623188,850.713768 C680.736726,850.713768 682.789845,850.426935 684.782609,849.853261 C686.775372,849.279587 688.632238,848.479474 690.353261,847.452899 C692.074284,846.426323 693.644317,845.20351 695.063406,843.78442 C696.482495,842.365331 697.675116,840.780202 698.641304,839.028986 L702.98913,843.467391 C700.452886,847.452918 697.086374,850.668466 692.889493,853.11413 C688.692612,855.559795 683.937225,856.782609 678.623188,856.782609 C674.637661,856.782609 670.893737,856.027785 667.391304,854.518116 C663.888871,853.008447 660.854481,850.970423 658.288043,848.403986 C655.721606,845.837548 653.683582,842.818254 652.173913,839.346014 C650.664244,835.873775 649.90942,832.17514 649.90942,828.25 Z M702.717391,826.981884 L702.717391,832.688406 L675.634058,832.688406 L675.634058,826.981884 L702.717391,826.981884 Z M773.641304,856.51087 L766.576087,856.51087 L743.75,810.586957 L724.094203,850.804348 L750.724638,850.804348 L754.619565,856.51087 L714.130435,856.51087 L743.75,797 L773.641304,856.51087 Z M853.17029,856.51087 L832.246377,813.032609 L820.561594,837.76087 L808.695652,813.032609 L788.224638,856.51087 L781.25,856.51087 L808.695652,798.268116 L820.561594,822.905797 L832.065217,798.268116 L860.144928,856.51087 L853.17029,856.51087 Z M912.59058,826.981884 L912.59058,832.688406 L885.507246,832.688406 L885.507246,826.981884 L912.59058,826.981884 Z M870.289855,856.51087 L870.289855,799.98913 L913.315217,799.98913 L913.315217,805.695652 L876.630435,805.695652 L876.630435,850.804348 L913.315217,850.804348 L913.315217,856.51087 L870.289855,856.51087 Z M974.094203,805.695652 L941.576087,805.695652 C938.315201,805.695652 935.869573,806.631633 934.23913,808.503623 C932.608687,810.375613 931.793478,812.760855 931.793478,815.65942 C931.793478,818.195665 932.367144,820.30917 933.514493,822 C934.661841,823.69083 936.503611,824.777775 939.039855,825.26087 L939.039855,831.148551 C937.167865,831.148551 935.401578,830.72585 933.740942,829.880435 C932.080306,829.03502 930.615948,827.917881 929.347826,826.528986 C928.079704,825.14009 927.083337,823.509671 926.358696,821.637681 C925.634054,819.765691 925.271739,817.772957 925.271739,815.65942 C925.271739,813.304336 925.634054,811.160638 926.358696,809.228261 C927.083337,807.295884 928.079704,805.650369 929.347826,804.291667 C930.615948,802.932964 932.095402,801.876212 933.786232,801.121377 C935.477062,800.366542 937.288638,799.98913 939.221014,799.98913 L974.094203,799.98913 L974.094203,805.695652 Z M926.177536,850.804348 L958.695652,850.804348 C961.956538,850.804348 964.402166,849.868367 966.032609,847.996377 C967.663052,846.124387 968.478261,843.739145 968.478261,840.84058 C968.478261,838.304335 967.904595,836.205926 966.757246,834.54529 C965.609898,832.884654 963.768129,831.812804 961.231884,831.32971 L961.231884,825.351449 C963.103874,825.351449 964.870161,825.77415 966.530797,826.619565 C968.191433,827.46498 969.655791,828.582119 970.923913,829.971014 C972.192035,831.35991 973.188402,833.005425 973.913043,834.907609 C974.637685,836.809792 975,838.787429 975,840.84058 C975,843.195664 974.622588,845.339362 973.867754,847.271739 C973.112919,849.204116 972.101456,850.849631 970.833333,852.208333 C969.565211,853.567036 968.085757,854.623788 966.394928,855.378623 C964.704098,856.133458 962.922715,856.51087 961.050725,856.51087 L926.177536,856.51087 L926.177536,850.804348 Z" id="NETHERIANS-GAMES" fill="#0E4F62"></path>
            </g>
        </g>
    </g>
</svg>