<?xml version="1.0" encoding="UTF-8"?>
<svg width="470px" height="158px" viewBox="0 0 470 158" version="1.1" xmlns="http://www.w3.org/2000/svg" xmlns:xlink="http://www.w3.org/1999/xlink">
    <!-- Generator: Sketch 42 (36781) - http://www.bohemiancoding.com/sketch -->
    <title>logotipo</title>
    <desc>Created with Sketch.</desc>
    <defs>
        <path d="M4.69989827,143.503805 L17.456765,143.503805 C19.5157784,143.503805 21.5635707,143.068498 23.6002035,142.197869 C25.6368362,141.327241 27.4384459,140.132935 29.0050865,138.614916 C30.5717271,137.096898 31.847401,135.355667 32.8321465,133.391172 C33.816892,131.426677 34.3092574,129.328271 34.3092574,127.09589 C34.3092574,124.908158 33.8616525,122.79859 32.9664293,120.767123 C32.0712061,118.735657 30.8626729,116.949779 29.3407935,115.409437 C27.8189141,113.869094 26.0396846,112.641303 24.0030519,111.726027 C21.9664191,110.810751 19.8067256,110.35312 17.5239064,110.35312 L4.69989827,110.35312 L4.69989827,143.503805 Z M-2.84217094e-14,147.789954 L-2.84217094e-14,106 L17.456765,106 C20.4110015,106 23.1861518,106.546925 25.7822991,107.640791 C28.3784463,108.734658 30.6276609,110.241492 32.5300102,112.161339 C34.4323595,114.081187 35.9430259,116.313534 37.0620549,118.858447 C38.1810839,121.403361 38.74059,124.126825 38.74059,127.028919 C38.74059,129.931014 38.1363234,132.643316 36.9277721,135.165906 C35.7192208,137.688496 34.1302235,139.887357 32.1607325,141.762557 C30.1912414,143.637757 27.9420269,145.111106 25.4130214,146.182648 C22.8840158,147.254191 20.2767174,147.789954 17.5910478,147.789954 L-2.84217094e-14,147.789954 Z M78.6225839,125.957382 L78.6225839,130.17656 L58.5473042,130.17656 L58.5473042,125.957382 L78.6225839,125.957382 Z M47.2675483,147.789954 L47.2675483,106 L79.1597152,106 L79.1597152,110.219178 L51.9674466,110.219178 L51.9674466,143.570776 L79.1597152,143.570776 L79.1597152,147.789954 L47.2675483,147.789954 Z M130.791455,106 L125.420142,106 L108.634791,139.954338 L92.0508647,106 L86.6795524,106 L108.634791,150 L130.791455,106 Z M193.434385,125.957382 L193.434385,130.17656 L173.359105,130.17656 L173.359105,125.957382 L193.434385,125.957382 Z M162.079349,147.789954 L162.079349,106 L193.971516,106 L193.971516,110.219178 L166.779247,110.219178 L166.779247,143.570776 L193.971516,143.570776 L193.971516,147.789954 L162.079349,147.789954 Z M208.071211,147.789954 L208.071211,109.884323 L235.062055,147.789954 L242.447609,147.789954 L242.447609,106 L237.747711,106 L237.747711,143.838661 L211.226857,106 L203.371312,106 L203.371312,147.789954 L208.071211,147.789954 Z M256.547304,143.503805 L269.304171,143.503805 C271.363184,143.503805 273.410977,143.068498 275.447609,142.197869 C277.484242,141.327241 279.285852,140.132935 280.852492,138.614916 C282.419133,137.096898 283.694807,135.355667 284.679552,133.391172 C285.664298,131.426677 286.156663,129.328271 286.156663,127.09589 C286.156663,124.908158 285.709058,122.79859 284.813835,120.767123 C283.918612,118.735657 282.710079,116.949779 281.188199,115.409437 C279.66632,113.869094 277.887091,112.641303 275.850458,111.726027 C273.813825,110.810751 271.654131,110.35312 269.371312,110.35312 L256.547304,110.35312 L256.547304,143.503805 Z M251.847406,147.789954 L251.847406,106 L269.304171,106 C272.258407,106 275.033558,106.546925 277.629705,107.640791 C280.225852,108.734658 282.475067,110.241492 284.377416,112.161339 C286.279765,114.081187 287.790432,116.313534 288.909461,118.858447 C290.02849,121.403361 290.587996,124.126825 290.587996,127.028919 C290.587996,129.931014 289.983729,132.643316 288.775178,135.165906 C287.566627,137.688496 285.977629,139.887357 284.008138,141.762557 C282.038647,143.637757 279.789433,145.111106 277.260427,146.182648 C274.731422,147.254191 272.124123,147.789954 269.438454,147.789954 L251.847406,147.789954 Z M299.114954,147.789954 L299.114954,106 L303.814852,106 L303.814852,143.570776 L331.007121,143.570776 L331.007121,147.789954 L299.114954,147.789954 Z M371.560529,125.957382 L371.560529,130.17656 L351.485249,130.17656 L351.485249,125.957382 L371.560529,125.957382 Z M340.205493,147.789954 L340.205493,106 L372.09766,106 L372.09766,110.219178 L344.905392,110.219178 L344.905392,143.570776 L372.09766,143.570776 L372.09766,147.789954 L340.205493,147.789954 Z M417.149542,110.219178 L393.045778,110.219178 C390.628676,110.219178 388.815876,110.911206 387.607325,112.295282 C386.398773,113.679358 385.794507,115.442912 385.794507,117.585997 C385.794507,119.461197 386.219731,121.02384 387.070193,122.273973 C387.920655,123.524106 389.28585,124.327751 391.165819,124.684932 L391.165819,129.038052 C389.778223,129.038052 388.468979,128.725523 387.238047,128.100457 C386.007115,127.47539 384.921673,126.649422 383.981689,125.622527 C383.041704,124.595632 382.303156,123.390164 381.766022,122.006088 C381.228888,120.622012 380.960326,119.148663 380.960326,117.585997 C380.960326,115.84474 381.228888,114.259774 381.766022,112.83105 C382.303156,111.402327 383.041704,110.185698 383.981689,109.181126 C384.921673,108.176555 386.018305,107.395234 387.271617,106.837139 C388.52493,106.279043 389.867745,106 391.300102,106 L417.149542,106 L417.149542,110.219178 Z M381.63174,143.570776 L405.735504,143.570776 C408.152606,143.570776 409.965406,142.878749 411.173957,141.494673 C412.382509,140.110597 412.986775,138.347043 412.986775,136.203957 C412.986775,134.328758 412.561551,132.777277 411.711089,131.549467 C410.860626,130.321658 409.495432,129.529175 407.615463,129.171994 L407.615463,124.751903 C409.003059,124.751903 410.312303,125.064431 411.543235,125.689498 C412.774167,126.314564 413.859609,127.140533 414.799593,128.167428 C415.739577,129.194323 416.478125,130.410952 417.015259,131.817352 C417.552393,133.223751 417.820956,134.685939 417.820956,136.203957 C417.820956,137.945214 417.541203,139.530181 416.981689,140.958904 C416.422174,142.387628 415.672436,143.604257 414.732452,144.608828 C413.792467,145.613399 412.695835,146.394721 411.442523,146.952816 C410.18921,147.510911 408.868776,147.789954 407.48118,147.789954 L381.63174,147.789954 L381.63174,143.570776 Z M461.328586,110.219178 L437.224822,110.219178 C434.807719,110.219178 432.99492,110.911206 431.786368,112.295282 C430.577817,113.679358 429.97355,115.442912 429.97355,117.585997 C429.97355,119.461197 430.398775,121.02384 431.249237,122.273973 C432.099699,123.524106 433.464894,124.327751 435.344863,124.684932 L435.344863,129.038052 C433.957267,129.038052 432.648022,128.725523 431.417091,128.100457 C430.186159,127.47539 429.100717,126.649422 428.160732,125.622527 C427.220748,124.595632 426.4822,123.390164 425.945066,122.006088 C425.407932,120.622012 425.139369,119.148663 425.139369,117.585997 C425.139369,115.84474 425.407932,114.259774 425.945066,112.83105 C426.4822,111.402327 427.220748,110.185698 428.160732,109.181126 C429.100717,108.176555 430.197349,107.395234 431.450661,106.837139 C432.703974,106.279043 434.046788,106 435.479145,106 L461.328586,106 L461.328586,110.219178 Z M425.810783,143.570776 L449.914547,143.570776 C452.33165,143.570776 454.14445,142.878749 455.353001,141.494673 C456.561552,140.110597 457.165819,138.347043 457.165819,136.203957 C457.165819,134.328758 456.740594,132.777277 455.890132,131.549467 C455.03967,130.321658 453.674475,129.529175 451.794507,129.171994 L451.794507,124.751903 C453.182103,124.751903 454.491347,125.064431 455.722279,125.689498 C456.953211,126.314564 458.038652,127.140533 458.978637,128.167428 C459.918621,129.194323 460.657169,130.410952 461.194303,131.817352 C461.731437,133.223751 462,134.685939 462,136.203957 C462,137.945214 461.720247,139.530181 461.160732,140.958904 C460.601218,142.387628 459.85148,143.604257 458.911495,144.608828 C457.971511,145.613399 456.874879,146.394721 455.621567,146.952816 C454.368254,147.510911 453.04782,147.789954 451.660224,147.789954 L425.810783,147.789954 L425.810783,143.570776 Z" id="path-1"></path>
        <filter x="-50%" y="-50%" width="200%" height="200%" filterUnits="objectBoundingBox" id="filter-2">
            <feOffset dx="2" dy="0" in="SourceAlpha" result="shadowOffsetOuter1"></feOffset>
            <feGaussianBlur stdDeviation="2" in="shadowOffsetOuter1" result="shadowBlurOuter1"></feGaussianBlur>
            <feColorMatrix values="0 0 0 0 0.0196078431   0 0 0 0 0.0470588235   0 0 0 0 0.105882353  0 0 0 0.498245018 0" type="matrix" in="shadowBlurOuter1"></feColorMatrix>
        </filter>
        <filter x="-50%" y="-50%" width="200%" height="200%" filterUnits="objectBoundingBox" id="filter-3">
            <feOffset dx="2" dy="0" in="SourceAlpha" result="shadowOffsetOuter1"></feOffset>
            <feGaussianBlur stdDeviation="2" in="shadowOffsetOuter1" result="shadowBlurOuter1"></feGaussianBlur>
            <feColorMatrix values="0 0 0 0 0   0 0 0 0 0   0 0 0 0 0  0 0 0 0.49830163 0" type="matrix" in="shadowBlurOuter1" result="shadowMatrixOuter1"></feColorMatrix>
            <feMerge>
                <feMergeNode in="shadowMatrixOuter1"></feMergeNode>
                <feMergeNode in="SourceGraphic"></feMergeNode>
            </feMerge>
        </filter>
    </defs>
    <g id="Landing-page" stroke="none" stroke-width="1" fill="none" fill-rule="evenodd">
        <g id="Notebook" transform="translate(-450.000000, -6.000000)">
            <g id="HEADER" transform="translate(-1.000000, 0.000000)">
                <g id="logotipo" transform="translate(453.000000, 10.000000)">
                    <g id="DEV-ENDLESS">
                        <use fill="black" fill-opacity="1" filter="url(#filter-2)" xlink:href="#path-1"></use>
                        <use fill="#0E4F62" fill-rule="evenodd" xlink:href="#path-1"></use>
                    </g>
                    <g id="symbol" filter="url(#filter-3)" transform="translate(181.000000, 0.000000)">
                        <ellipse id="Oval" fill="#0E4F62" cx="49.8519949" cy="48.8082902" rx="49.8519949" ry="48.8082902"></ellipse>
                        <ellipse id="Oval-2" fill="#050C1B" cx="49.8519949" cy="48.8082902" rx="33.7438294" ry="33.0373663"></ellipse>
                        <ellipse id="Oval-2" fill="#0E4F62" cx="50.2685854" cy="48.128509" rx="29.7167881" ry="29.0946354"></ellipse>
                        <ellipse id="Oval-2" fill="#050C1B" cx="52.7681283" cy="48.128509" rx="29.4390611" ry="28.8227229"></ellipse>
                    </g>
                    <g id="alien" transform="translate(220.000000, 36.000000)">
                        <path d="M10.773937,24.9542523 C13.3446744,24.6198961 20.9368065,16.2213994 21.7513171,10.3993175 C22.5658277,4.57723562 16.8204384,0 10.773937,0 C4.72743572,0 -0.853059331,4.53044734 0.108554134,10.3993175 C1.0701676,16.2681877 8.20319971,25.2886086 10.773937,24.9542523 Z" id="Oval-3" stroke="#0E4F62" stroke-width="2" opacity="0.75"></path>
                        <path d="M1.16311082,9.13479294 C1.16311082,9.13479294 0.947347649,12.3279132 3.31372888,14.932041 C5.68011012,17.5361689 9.59633171,17.5379684 9.59633171,17.5379684 C9.59633171,17.5379684 9.87355693,14.880394 8.18012055,12.0075935 C6.48668417,9.13479294 1.16311082,9.13479294 1.16311082,9.13479294 Z" id="Path-2" fill="#0E4F62"></path>
                        <path d="M12.2165407,9.23743106 C12.2165407,9.23743106 12.0007775,12.4305514 14.3671588,15.0346792 C16.73354,17.638807 20.6497616,17.6406065 20.6497616,17.6406065 C20.6497616,17.6406065 20.9269868,14.9830321 19.2335504,12.1102316 C17.540114,9.23743106 12.2165407,9.23743106 12.2165407,9.23743106 Z" id="Path-2" fill="#0E4F62" transform="translate(16.439018, 13.439019) scale(-1, 1) translate(-16.439018, -13.439019) "></path>
                    </g>
                </g>
            </g>
        </g>
    </g>
</svg>